HIERARCHY
ROOT hip
{
  OFFSET 0.0 0.0 0.0
  CHANNELS 6 Xposition Yposition Zposition Zrotation Yrotation Xrotation
  JOINT torso
  {
    OFFSET 0.0 0.0 0.0
    CHANNELS 3 Zrotation Xrotation Yrotation
    JOINT neck
    {
      OFFSET -8.600829999999974 327.7417449999999 60.895874000000276
      CHANNELS 3 Zrotation Xrotation Yrotation
      JOINT head
      {
        OFFSET 0.7211610000001087 266.848846 239.12060599999995
        CHANNELS 3 Zrotation Xrotation Yrotation
        End Site
        {
          OFFSET 0.0 0.0 0.0
        }
      }
    }
    JOINT left_collar
    {
      OFFSET -8.600829999999974 327.7417449999999 60.895874000000276
      CHANNELS 3 Zrotation Xrotation Yrotation
      JOINT left_upper_arm
      {
        OFFSET -122.29599000000002 -5.21875 31.800903999999946
        CHANNELS 3 Zrotation Xrotation Yrotation
        JOINT left_forearm
        {
          OFFSET -195.94708199999997 63.423126000000025 226.99352999999996
          CHANNELS 3 Zrotation Xrotation Yrotation
          JOINT left_hand
          {
            OFFSET -232.19226099999992 28.282164999999964 80.86950699999989
            CHANNELS 3 Zrotation Xrotation Yrotation
            End Site
            {
              OFFSET 0.0 0.0 0.0
            }
          }
        }
      }
    }
    JOINT right_collar
    {
      OFFSET -8.600829999999974 327.7417449999999 60.895874000000276
      CHANNELS 3 Zrotation Xrotation Yrotation
      JOINT right_upper_arm
      {
        OFFSET 168.41261300000002 -11.913361000000066 -9.389160000000174
        CHANNELS 3 Zrotation Xrotation Yrotation
        JOINT right_forearm
        {
          OFFSET 213.49279800000005 104.82293699999997 83.52258300000017
          CHANNELS 3 Zrotation Xrotation Yrotation
          JOINT right_hand
          {
            OFFSET 222.067185 62.005675999999994 -110.52026300000034
            CHANNELS 3 Zrotation Xrotation Yrotation
            End Site
            {
              OFFSET 0.0 0.0 0.0
            }
          }
        }
      }
    }
  }
}
MOTION
Frames: 8
Frame Time: 0.01
19.281405157915767 -64.92857367689703 408.5367427490534 9.41259344027591 -13.83508612669863 -41.884000137797024 -2.0015426488242385 5.2595727988768814 0.42151634839004787 -8.815272284558962 10.28938951555066 7.704256516271643 0.0 0.0 0.0 -1.106512989374537 -0.575538003275582 9.064497222706898 15.7763543344006 15.366730921767118 -68.25107725896187 -2.834849729766784 -4.791413768725941 -23.21373068281546 0.0 0.0 0.0 -0.360292791256578 -0.15693575395152576 -1.8496891978901169 -47.759931699185465 16.621106103862633 55.02425422781813 4.2522854500309935 -2.2377951598104655 14.057585170807636 0.0 0.0 0.0
19.184577468012186 -63.66705311861755 408.5278364997533 9.382732931329762 -13.795384894873193 -41.86723711583801 -1.9910523033557543 5.190372525857317 0.41937034190961064 -8.812012312576446 10.2849740941951 7.701486606130663 0.0 0.0 0.0 -1.0895778748257656 -0.5730927291216422 9.081998836234602 15.774436375119592 15.357784147106521 -68.22414324857759 -2.852629869068165 -4.8063650848573864 -23.237042053967258 0.0 0.0 0.0 -0.3442353062642837 -0.15418550334426545 -1.8281391609269846 -47.75314803767941 16.614657279879147 55.03696250723667 4.246494524423306 -2.2370098975266983 14.048058361268582 0.0 0.0 0.0
19.079408870061584 -62.39827917004524 408.5226177119026 9.353935810465307 -13.761231392486392 -41.84726752211587 -1.9827369806056503 5.12670336946873 0.41757493317768907 -8.80798428669335 10.276566863296386 7.698126623791192 0.0 0.0 0.0 -1.0734618080933367 -0.570722442980832 9.09712677098067 15.772244709301658 15.346596985641874 -68.19962743525446 -2.872406740247407 -4.822753686750355 -23.26156673258837 0.0 0.0 0.0 -0.3285802532198302 -0.15160031053974796 -1.8083516667932098 -47.74256494464482 16.604514848107677 55.04967205969555 4.240890481973576 -2.235920903906351 14.037724184591694 0.0 0.0 0.0
18.966113372693226 -61.12449605517385 408.5214645643047 9.326137977765384 -13.73288966407236 -41.82402538291593 -1.9766436668959808 5.068858840405231 0.41614440226353877 -8.803058779092733 10.264437265878428 7.694056985503441 0.0 0.0 0.0 -1.0582212904966384 -0.5684280236329416 9.109636859231665 15.769884355844317 15.333891587886315 -68.17755976831084 -2.893793299548849 -4.840263096892215 -23.286834084581887 0.0 0.0 0.0 -0.3132732918110933 -0.14920197013492553 -1.7906883979305366 -47.72804413055087 16.590541682326013 55.06240799739669 4.235534322926319 -2.2346217727100637 14.026971238005297 0.0 0.0 0.0
18.844997157828974 -59.848201972319195 408.5247180285437 9.299230713234195 -13.710539688558416 -41.79750243365952 -1.972755651873174 5.017051343877563 0.4150826260023532 -8.797139432318152 10.248898093523312 7.689186189619308 0.0 0.0 0.0 -1.0439013810540243 -0.5662107048766315 9.119360859114444 15.767471643787726 15.320468882147509 -68.15792852671173 -2.9163930782129137 -4.858575986190129 -23.312405285122274 0.0 0.0 0.0 -0.2982548769411689 -0.14700603224088518 -1.7754328240250639 -47.70952304952191 16.57267329935874 55.07513888063072 4.230496019223422 -2.233216690001525 14.01623489169434 0.0 0.0 0.0
18.716457633346707 -58.57212360239851 408.53266471923723 9.273063461969839 -13.694273318119908 -41.76774798587917 -1.970992417999415 4.971412619109504 0.4143828579430215 -8.79016652811661 10.230294425644376 7.683454196721826 0.0 0.0 0.0 -1.0305339522068353 -0.564072010716355 9.126211492761216 15.765129515770365 15.307176350967955 -68.14068604429626 -2.939803611557418 -4.877378423863212 -23.3378856753248 0.0 0.0 0.0 -0.283462863347538 -0.14502146762964993 -1.7627823680792805 -47.68701974217775 16.550922693644583 55.087770626056425 4.225852763514813 -2.231817517502541 14.005985349796791 0.0 0.0 0.0
18.58098182586743 -57.29918056611045 408.54552244157986 9.24744899954685 -13.684092436037494 -41.73486696092859 -1.9712123090980527 4.9319957294604695 0.4140279959008589 -8.782119074338533 10.208992816003018 7.676834507825411 0.0 0.0 0.0 -1.0181365731097727 -0.5620136654584473 9.130183520623541 15.762982533305072 15.294874307569435 -68.12575283110267 -2.963619255554113 -4.896363692204365 -23.362936305704267 0.0 0.0 0.0 -0.26883541923809684 -0.1432506714486341 -1.7528449321434982 -47.66063497443604 16.525382681036906 55.100144192131424 4.2216868498677735 -2.230540676223493 13.996714569722302 0.0 0.0 0.0
18.43914413973818 -56.032441346770106 408.5634290940116 9.222170812482343 -13.679909082246292 -41.699016277626875 -1.973217910438031 4.898778156074681 0.4139913287700154 -8.773015364975462 10.185371132265358 7.669334890906045 0.0 0.0 0.0 -1.0067121678208941 -0.5600375043349168 9.131351022176839 15.761151851826538 15.28440232339789 -68.11302024708961 -2.987433689458013 -4.915235681964866 -23.387283813399847 0.0 0.0 0.0 -0.2543140957217394 -0.14168979334195275 -1.745639789065749 -47.630551662584196 16.496225727538565 55.11203706758064 4.21808301989996 -2.2295040463196 13.988922570286343 0.0 0.0 0.0
